<svg width="18" height="19" viewBox="0 0 18 19" fill="none" xmlns="http://www.w3.org/2000/svg">
<path fill-rule="evenodd" clip-rule="evenodd" d="M9 2C13.1422 2 16.5 5.35776 16.5 9.5C16.5 13.6422 13.1422 17 9 17C4.85776 17 1.5 13.6422 1.5 9.5C1.5 5.35776 4.85776 2 9 2ZM8.14294 12.3324L12.5304 7.94488C12.8237 7.65238 12.8237 7.17762 12.5304 6.88437C12.2372 6.59188 11.7632 6.59188 11.4699 6.88437L8.14294 10.2114L6.53044 8.59888C6.23719 8.30562 5.76319 8.30562 5.46994 8.59888C5.17669 8.89213 5.17669 9.36613 5.46994 9.65938L8.14294 12.3324Z" fill="#DA2C2C"/>
</svg>
