<svg width="37" height="37" viewBox="0 0 37 37" fill="none" xmlns="http://www.w3.org/2000/svg">
<rect x="0.125" width="36.5625" height="36.5625" rx="18.2812" fill="#333333"/>
<path fill-rule="evenodd" clip-rule="evenodd" d="M24.7891 18.9629C24.7891 19.5051 25.2229 19.9389 25.7651 19.9389C26.3073 19.9389 26.7411 19.5051 26.7411 18.9629C26.7411 18.4206 26.3073 17.9868 25.7651 17.9868C25.2229 17.9868 24.7891 18.4206 24.7891 18.9629Z" fill="#A2A2A2"/>
<path fill-rule="evenodd" clip-rule="evenodd" d="M19.9785 18.9631C19.9785 19.5053 20.4123 19.9391 20.9546 19.9391C21.4968 19.9391 21.9306 19.5053 21.9306 18.9631C21.9306 18.4209 21.4968 17.9871 20.9546 17.9871C20.4123 17.9871 19.9785 18.4209 19.9785 18.9631Z" fill="#A2A2A2"/>
<path fill-rule="evenodd" clip-rule="evenodd" d="M25.5083 19.7975C24.9694 19.7975 24.5382 19.3664 24.5382 18.8275C24.5382 18.2886 24.9694 17.8575 25.5083 17.8575C26.0472 17.8575 26.4783 18.2886 26.4783 18.8275C26.4783 19.3394 26.0472 19.7975 25.5083 19.7975ZM20.7269 19.7977C20.188 19.7977 19.7568 19.3666 19.7568 18.8277C19.7568 18.2888 20.188 17.8577 20.7269 17.8577C21.2658 17.8577 21.6969 18.2888 21.6969 18.8277C21.6969 19.3396 21.2658 19.7977 20.7269 19.7977ZM27.8216 25.2422C29.3338 24.1538 30.2889 22.5343 30.2889 20.7556C30.2889 17.4636 27.1052 14.8088 23.1522 14.8088C19.1992 14.8088 16.0156 17.4636 16.0156 20.7556C16.0156 24.0476 19.1992 26.7024 23.1522 26.7024C23.9747 26.7024 24.7441 26.5962 25.4869 26.3838C25.54 26.3572 25.6195 26.3572 25.6991 26.3572C25.8318 26.3572 25.9644 26.4103 26.0706 26.4634L27.6358 27.3661C27.6889 27.3926 27.7154 27.4192 27.7685 27.4192C27.9011 27.4192 28.0073 27.313 28.0073 27.1802C28.0073 27.1271 27.9807 27.074 27.9807 26.9944C27.9807 26.9679 27.7685 26.2511 27.6624 25.7997C27.6358 25.7466 27.6358 25.6935 27.6358 25.6404C27.6093 25.4546 27.6889 25.3219 27.8216 25.2422Z" fill="white"/>
<path fill-rule="evenodd" clip-rule="evenodd" d="M17.8869 14.1853C17.2682 14.1853 16.7783 13.6955 16.7783 13.0767C16.7783 12.458 17.2682 11.9681 17.8869 11.9681C18.5057 11.9681 18.9955 12.458 18.9955 13.0767C18.9955 13.6697 18.5057 14.1853 17.8869 14.1853ZM12.2053 14.1855C11.5865 14.1855 11.0967 13.6956 11.0967 13.0769C11.0967 12.4581 11.5865 11.9683 12.2053 11.9683C12.824 11.9683 13.3139 12.4581 13.3139 13.0769C13.3139 13.6698 12.824 14.1855 12.2053 14.1855ZM15.1123 8.22656C10.3791 8.22656 6.52344 11.4065 6.52344 15.3549C6.52344 17.5014 7.66684 19.4358 9.50161 20.7343C9.63457 20.8403 9.74093 20.9993 9.74093 21.2113C9.74093 21.2643 9.71434 21.3438 9.71434 21.3968C9.58138 21.9268 9.34207 22.8013 9.31548 22.8278C9.28889 22.9073 9.26229 22.9603 9.26229 23.0398C9.26229 23.1987 9.39525 23.3312 9.55479 23.3312C9.60798 23.3312 9.66116 23.3047 9.71434 23.2782L11.6023 22.1918C11.7352 22.1123 11.8948 22.0593 12.0543 22.0593C12.1341 22.0593 12.2139 22.0593 12.2937 22.0858C13.1711 22.3243 14.1284 22.4833 15.0857 22.4833C15.2452 22.4833 15.4048 22.4833 15.5643 22.4833C15.3782 21.9268 15.2718 21.3438 15.2718 20.7343C15.2718 17.1569 18.7818 14.2419 23.0895 14.2419C23.2491 14.2419 23.4086 14.2419 23.5682 14.2419C22.9566 10.8235 19.3934 8.22656 15.1123 8.22656Z" fill="#48C95F"/>
</svg>
