<svg width="37" height="37" viewBox="0 0 37 37" fill="none" xmlns="http://www.w3.org/2000/svg">
<rect width="36.5625" height="36.5625" rx="18.2812" fill="#DA2C2C"/>
<g clip-path="url(#clip0_2052_15405)">
<path d="M26.4338 23.1688L26.3519 22.9221C26.1579 22.3456 25.5222 21.7443 24.9382 21.5859L22.7766 20.9954C22.1904 20.8359 21.3542 21.0504 20.9253 21.4792L20.143 22.2616C17.2999 21.4933 15.0704 19.2638 14.3032 16.4212L15.0856 15.6389C15.5145 15.21 15.7289 14.3749 15.5694 13.7887L14.98 11.6261C14.8205 11.041 14.2181 10.4052 13.6427 10.2134L13.396 10.1304C12.8195 9.93861 11.9973 10.1326 11.5684 10.5615L10.3982 11.7328C10.1891 11.9407 10.0555 12.5355 10.0555 12.5377C10.0146 16.2531 11.4714 19.8327 14.0996 22.4609C16.7212 25.0825 20.2874 26.5372 23.992 26.506C24.0114 26.506 24.6235 26.3745 24.8325 26.1665L26.0028 24.9963C26.4316 24.5675 26.6256 23.7453 26.4338 23.1688Z" fill="white"/>
</g>
<defs>
<clipPath id="clip0_2052_15405">
<rect width="16.4531" height="16.4531" fill="white" transform="translate(10.0547 10.0547)"/>
</clipPath>
</defs>
</svg>
