<svg width="37" height="38" viewBox="0 0 37 38" fill="none" xmlns="http://www.w3.org/2000/svg">
<rect y="0.71875" width="36.5625" height="36.5625" rx="18.2812" fill="#333333"/>
<g clip-path="url(#clip0_2230_466)">
<path d="M26.4338 23.8875L26.3519 23.6408C26.1579 23.0643 25.5222 22.463 24.9382 22.3046L22.7766 21.7141C22.1904 21.5546 21.3542 21.7691 20.9253 22.1979L20.143 22.9802C17.2999 22.212 15.0704 19.9825 14.3032 17.1399L15.0856 16.3576C15.5145 15.9287 15.7289 15.0936 15.5694 14.5074L14.98 12.3448C14.8205 11.7596 14.2181 11.1239 13.6427 10.9321L13.396 10.8491C12.8195 10.6573 11.9973 10.8513 11.5684 11.2801L10.3982 12.4514C10.1891 12.6594 10.0555 13.2542 10.0555 13.2564C10.0146 16.9718 11.4714 20.5514 14.0996 23.1796C16.7212 25.8012 20.2874 27.2559 23.992 27.2247C24.0114 27.2247 24.6235 27.0932 24.8325 26.8852L26.0028 25.715C26.4316 25.2862 26.6256 24.464 26.4338 23.8875Z" fill="white"/>
</g>
<defs>
<clipPath id="clip0_2230_466">
<rect width="16.4531" height="16.4531" fill="white" transform="translate(10.0547 10.7734)"/>
</clipPath>
</defs>
</svg>
