<svg width="37" height="37" viewBox="0 0 37 37" fill="none" xmlns="http://www.w3.org/2000/svg">
<rect x="0.601562" width="36.3957" height="36.5625" rx="18.1979" fill="#48C95F"/>
<path d="M26.0117 11.0259C24.2141 9.22632 21.8173 8.22656 19.2874 8.22656C14.0277 8.22656 9.76677 12.4922 9.76677 17.7576C9.76677 19.4238 10.2328 21.0901 11.0317 22.4897L9.7002 27.4219L14.7601 26.0889C16.1582 26.822 17.6895 27.2219 19.2874 27.2219C24.547 27.2219 28.808 22.9563 28.808 17.6909C28.7414 15.2249 27.8093 12.8254 26.0117 11.0259ZM23.8812 21.1567C23.6815 21.6899 22.7494 22.2231 22.2834 22.2898C21.8839 22.3564 21.3513 22.3564 20.8187 22.2231C20.4858 22.0898 20.0197 21.9565 19.4871 21.6899C17.0903 20.6902 15.559 18.2908 15.4259 18.0908C15.2927 17.9575 14.4272 16.8245 14.4272 15.6248C14.4272 14.425 15.0264 13.8918 15.2261 13.6252C15.4259 13.3586 15.6922 13.3586 15.8919 13.3586C16.0251 13.3586 16.2248 13.3586 16.3579 13.3586C16.4911 13.3586 16.6908 13.292 16.8906 13.7585C17.0903 14.2251 17.5563 15.4248 17.6229 15.4915C17.6895 15.6248 17.6895 15.7581 17.6229 15.8914C17.5563 16.0247 17.4898 16.158 17.3566 16.2913C17.2235 16.4246 17.0903 16.6245 17.0237 16.6912C16.8906 16.8245 16.7574 16.9578 16.8906 17.1577C17.0237 17.4243 17.4898 18.1575 18.2221 18.824C19.1542 19.6238 19.8866 19.8904 20.1529 20.0237C20.4192 20.157 20.5523 20.0903 20.6855 19.957C20.8186 19.8237 21.2847 19.2905 21.4178 19.0239C21.551 18.7573 21.7507 18.824 21.9505 18.8906C22.1502 18.9573 23.3486 19.5571 23.5483 19.6904C23.8146 19.8237 23.9478 19.8904 24.0144 19.957C24.0809 20.157 24.081 20.6235 23.8812 21.1567Z" fill="white"/>
</svg>
