<svg width="31" height="31" viewBox="0 0 31 31" fill="none" xmlns="http://www.w3.org/2000/svg">
<rect width="31" height="31" rx="7" fill="#454652"/>
<path d="M14.6838 7.15298C15.0823 6.59002 15.9177 6.59002 16.3162 7.15298L18.7106 10.5354C18.8375 10.7146 19.0198 10.8471 19.2295 10.9124L23.1863 12.1444C23.8448 12.3494 24.103 13.1439 23.6907 13.6969L21.2137 17.0193C21.0825 17.1954 21.0128 17.4097 21.0155 17.6293L21.0666 21.7731C21.0751 22.4628 20.3992 22.9538 19.7459 22.7326L15.8207 21.4036C15.6127 21.3332 15.3873 21.3332 15.1793 21.4036L11.2541 22.7326C10.6008 22.9538 9.92494 22.4628 9.93343 21.7731L9.98446 17.6293C9.98716 17.4097 9.91751 17.1954 9.78625 17.0193L7.3093 13.6969C6.89704 13.1439 7.15518 12.3494 7.81373 12.1444L11.7705 10.9124C11.9802 10.8471 12.1625 10.7146 12.2894 10.5354L14.6838 7.15298Z" fill="white"/>
</svg>
