<svg width="31" height="31" viewBox="0 0 31 31" fill="none" xmlns="http://www.w3.org/2000/svg">
<rect width="31" height="31" rx="7" fill="#454652"/>
<path d="M24.5 22H5.43333C5.19402 22 5 21.806 5 21.5667V9.43333C5 9.19402 5.19402 9 5.43333 9H24.5C24.7393 9 24.9333 9.19402 24.9333 9.43333V21.5667C24.9333 21.806 24.7393 22 24.5 22Z" fill="white"/>
<path d="M21.0331 10.3H8.89981C8.89981 11.736 7.73575 12.9 6.2998 12.9V18.1C7.73575 18.1 8.89981 19.2641 8.89981 20.7H21.0331C21.0331 19.2641 22.1972 18.1 23.6331 18.1V12.9C22.1972 12.9 21.0331 11.736 21.0331 10.3Z" fill="#454652"/>
<path d="M14.9669 18.5333C16.6422 18.5333 18.0003 17.1753 18.0003 15.5C18.0003 13.8247 16.6422 12.4667 14.9669 12.4667C13.2917 12.4667 11.9336 13.8247 11.9336 15.5C11.9336 17.1753 13.2917 18.5333 14.9669 18.5333Z" fill="white"/>
</svg>
