<svg width="12" height="12" viewBox="0 0 12 12" fill="none" xmlns="http://www.w3.org/2000/svg">
<path d="M4.5 1C3.19 1 2.125 2.065 2.125 3.375C2.125 4.66 3.13 5.7 4.44 5.745C4.48 5.74 4.52 5.74 4.55 5.745C4.56 5.745 4.565 5.745 4.575 5.745C4.58 5.745 4.58 5.745 4.585 5.745C5.865 5.7 6.87 4.66 6.875 3.375C6.875 2.065 5.81 1 4.5 1Z" fill="#0B0A0A"/>
<path d="M7.04047 7.07494C5.64547 6.14494 3.37047 6.14494 1.96547 7.07494C1.33047 7.49994 0.980469 8.07494 0.980469 8.68994C0.980469 9.30494 1.33047 9.87494 1.96047 10.2949C2.66047 10.7649 3.58047 10.9999 4.50047 10.9999C5.42047 10.9999 6.34047 10.7649 7.04047 10.2949C7.67047 9.86994 8.02047 9.29994 8.02047 8.67994C8.01547 8.06494 7.67047 7.49494 7.04047 7.07494Z" fill="#0B0A0A"/>
<path d="M9.99469 3.67005C10.0747 4.64005 9.38469 5.49005 8.42969 5.60505C8.42469 5.60505 8.42469 5.60505 8.41969 5.60505H8.40469C8.37469 5.60505 8.34469 5.60505 8.31969 5.61505C7.83469 5.64005 7.38969 5.48505 7.05469 5.20005C7.56969 4.74005 7.86469 4.05005 7.80469 3.30005C7.76969 2.89505 7.62969 2.52505 7.41969 2.21005C7.60969 2.11505 7.82969 2.05505 8.05469 2.03505C9.03469 1.95005 9.90969 2.68005 9.99469 3.67005Z" fill="#0B0A0A"/>
<path d="M10.9951 8.29495C10.9551 8.77995 10.6451 9.19995 10.1251 9.48495C9.62512 9.75995 8.99512 9.88995 8.37012 9.87495C8.73012 9.54995 8.94012 9.14495 8.98012 8.71495C9.03012 8.09495 8.73512 7.49995 8.14512 7.02495C7.81012 6.75995 7.42012 6.54995 6.99512 6.39495C8.10012 6.07495 9.49012 6.28995 10.3451 6.97995C10.8051 7.34995 11.0401 7.81495 10.9951 8.29495Z" fill="#0B0A0A"/>
</svg>
