<svg width="10" height="10" viewBox="0 0 10 10" fill="none" xmlns="http://www.w3.org/2000/svg">
<path d="M10 2.5V4.375C6.875 6.04187 3.125 6.04187 0 4.375V2.5H10ZM5.9375 6.20484V6.875C5.9375 7.22047 5.65797 7.5 5.3125 7.5H4.6875C4.34234 7.5 4.0625 7.22047 4.0625 6.875V6.20484C2.89062 6.10533 1.73064 5.82701 0.625 5.35889V9.375C0.625 9.72047 0.904844 10 1.25 10H8.75C9.09547 10 9.375 9.72047 9.375 9.375V5.35889C8.26904 5.82703 7.10938 6.10535 5.9375 6.20484ZM3.75 1.875V1.25C3.75 0.905762 4.03045 0.625 4.375 0.625H5.625C5.96924 0.625 6.25 0.905762 6.25 1.25V1.875H6.875V1.25C6.875 0.559687 6.31531 0 5.625 0H4.375C3.68469 0 3.125 0.559687 3.125 1.25V1.875H3.75Z" fill="#0B0A0A"/>
</svg>
