<svg width="31" height="31" viewBox="0 0 31 31" fill="none" xmlns="http://www.w3.org/2000/svg">
<rect width="31" height="31" rx="7" fill="#454652"/>
<path d="M15.5042 6C13.1668 6 11.2488 7.91138 11.2488 10.2488C11.2488 12.5861 13.1668 14.5042 15.5042 14.5041C17.8415 14.5041 19.7512 12.5861 19.7512 10.2488C19.7512 7.91138 17.8415 6 15.5042 6ZM12.1022 15.3509C9.55025 15.3509 7 17.0511 7 19.598V21.4874C7.16198 22.5503 7.85008 23.0017 8.70183 23H22.2998C23.1516 23.0017 23.7139 22.2906 24 21.4874V19.598C24.0017 16.201 21.4514 15.3509 18.8978 15.3509H12.1022Z" fill="white"/>
</svg>
