<svg width="10" height="10" viewBox="0 0 10 10" fill="none" xmlns="http://www.w3.org/2000/svg">
<path fill-rule="evenodd" clip-rule="evenodd" d="M8.05556 6.11107C8.05556 5.92689 8.12872 5.75026 8.25895 5.62002C8.38919 5.48979 8.56582 5.41663 8.75 5.41663C8.93418 5.41663 9.11081 5.48979 9.24105 5.62002C9.37128 5.75026 9.44444 5.92689 9.44444 6.11107C9.44444 6.29525 9.37128 6.47188 9.24105 6.60212C9.11081 6.73235 8.93418 6.80552 8.75 6.80552C8.56582 6.80552 8.38919 6.73235 8.25895 6.60212C8.12872 6.47188 8.05556 6.29525 8.05556 6.11107ZM3.61111 7.77774H6.38889V7.08329H3.61111V7.77774ZM1.25 6.66663C1.06582 6.66663 0.889187 6.59346 0.758954 6.46323C0.62872 6.33299 0.555556 6.15636 0.555556 5.97218C0.555556 5.788 0.62872 5.61137 0.758954 5.48114C0.889187 5.3509 1.06582 5.27774 1.25 5.27774C1.43418 5.27774 1.61081 5.3509 1.74105 5.48114C1.87128 5.61137 1.94444 5.788 1.94444 5.97218C1.94444 6.15636 1.87128 6.33299 1.74105 6.46323C1.61081 6.59346 1.43418 6.66663 1.25 6.66663ZM2.61111 1.7194C2.65 1.60551 2.75556 1.52774 2.87222 1.52774H7.125C7.24444 1.52774 7.35 1.60551 7.39722 1.7444L8.25833 4.02774H1.74167L2.61111 1.7194ZM10 3.83246V3.61107C10 3.50056 9.9561 3.39458 9.87796 3.31644C9.79982 3.2383 9.69384 3.1944 9.58333 3.1944H9.13056L8.44445 1.37496C8.3538 1.09695 8.17772 0.854649 7.9413 0.682573C7.70489 0.510496 7.42019 0.417427 7.12778 0.416626H2.86944C2.26944 0.419404 1.74167 0.805515 1.56389 1.35274L0.869444 3.1944H0.416667C0.30616 3.1944 0.200179 3.2383 0.122039 3.31644C0.0438986 3.39458 0 3.50056 0 3.61107V3.83246C2.32886e-05 3.92726 0.032376 4.01923 0.0917165 4.09316C0.151057 4.1671 0.233837 4.21859 0.326389 4.23913L0.45 4.26663L0.236111 4.75274C0.0829878 5.09831 0.00352256 5.47198 0.00277784 5.84996L0 9.13329C0 9.38052 0.202778 9.58329 0.45 9.58329H1.21667C1.46389 9.58329 1.66667 9.38052 1.66667 9.13329V8.61107H1.25V8.1944H8.75V8.61107H8.33333V9.13329C8.33333 9.38052 8.53611 9.58329 8.78333 9.58329H9.55C9.79722 9.58329 10 9.38052 10 9.13329V5.85552C10 5.47496 9.91945 5.09718 9.76389 4.74996L9.55 4.26663L9.67361 4.23913C9.76616 4.21859 9.84894 4.1671 9.90828 4.09316C9.96762 4.01923 9.99998 3.92726 10 3.83246Z" fill="#0B0A0A"/>
</svg>
