<svg width="30" height="30" viewBox="0 0 30 30" fill="none" xmlns="http://www.w3.org/2000/svg">
<rect x="0.455078" y="0.226074" width="29.3874" height="29.3874" rx="6" fill="white"/>
<g filter="url(#filter0_ii_1965_42111)">
<path d="M10.2763 7.23795C10.1026 7.42246 10 7.7088 10 8.07962V21.3282C10 21.6996 10.1026 21.9854 10.2763 22.1699L10.3204 22.213L17.7132 14.7914V14.7039V14.6165L10.3204 7.19422L10.2763 7.23795Z" fill="url(#paint0_linear_1965_42111)"/>
<path d="M20.1768 17.2659L17.7129 14.7912V14.7038V14.6163L20.1774 12.1422L20.2328 12.174L23.1526 13.8393C23.9862 14.315 23.9862 15.0931 23.1526 15.5694L20.2328 17.2348L20.1768 17.2659Z" fill="url(#paint1_linear_1965_42111)"/>
<g filter="url(#filter1_i_1965_42111)">
<path d="M20.2333 17.2341L17.7127 14.7037L10.2764 22.1697C10.5509 22.462 11.005 22.498 11.5164 22.2068L20.2333 17.2341Z" fill="url(#paint2_linear_1965_42111)"/>
</g>
<path d="M20.2333 12.1735L11.5164 7.20133C11.005 6.90959 10.5509 6.94613 10.2764 7.23847L17.7133 14.7044L20.2333 12.1735Z" fill="url(#paint3_linear_1965_42111)"/>
</g>
<defs>
<filter id="filter0_ii_1965_42111" x="10" y="7" width="13.7773" height="15.4079" filterUnits="userSpaceOnUse" color-interpolation-filters="sRGB">
<feFlood flood-opacity="0" result="BackgroundImageFix"/>
<feBlend mode="normal" in="SourceGraphic" in2="BackgroundImageFix" result="shape"/>
<feColorMatrix in="SourceAlpha" type="matrix" values="0 0 0 0 0 0 0 0 0 0 0 0 0 0 0 0 0 0 127 0" result="hardAlpha"/>
<feOffset dy="-0.795"/>
<feComposite in2="hardAlpha" operator="arithmetic" k2="-1" k3="1"/>
<feColorMatrix type="matrix" values="0 0 0 0 0 0 0 0 0 0 0 0 0 0 0 0 0 0 0.12 0"/>
<feBlend mode="normal" in2="shape" result="effect1_innerShadow_1965_42111"/>
<feColorMatrix in="SourceAlpha" type="matrix" values="0 0 0 0 0 0 0 0 0 0 0 0 0 0 0 0 0 0 127 0" result="hardAlpha"/>
<feOffset dy="0.795"/>
<feComposite in2="hardAlpha" operator="arithmetic" k2="-1" k3="1"/>
<feColorMatrix type="matrix" values="0 0 0 0 1 0 0 0 0 1 0 0 0 0 1 0 0 0 0.25 0"/>
<feBlend mode="normal" in2="effect1_innerShadow_1965_42111" result="effect2_innerShadow_1965_42111"/>
</filter>
<filter id="filter1_i_1965_42111" x="10.2764" y="14.7037" width="9.95703" height="7.7042" filterUnits="userSpaceOnUse" color-interpolation-filters="sRGB">
<feFlood flood-opacity="0" result="BackgroundImageFix"/>
<feBlend mode="normal" in="SourceGraphic" in2="BackgroundImageFix" result="shape"/>
<feColorMatrix in="SourceAlpha" type="matrix" values="0 0 0 0 0 0 0 0 0 0 0 0 0 0 0 0 0 0 127 0" result="hardAlpha"/>
<feOffset dy="-0.795"/>
<feComposite in2="hardAlpha" operator="arithmetic" k2="-1" k3="1"/>
<feColorMatrix type="matrix" values="0 0 0 0 0 0 0 0 0 0 0 0 0 0 0 0 0 0 0.08 0"/>
<feBlend mode="normal" in2="shape" result="effect1_innerShadow_1965_42111"/>
</filter>
<linearGradient id="paint0_linear_1965_42111" x1="17.0579" y1="7.93944" x2="7.00471" y2="17.9535" gradientUnits="userSpaceOnUse">
<stop stop-color="#00A0FF"/>
<stop offset="0.0066" stop-color="#00A1FF"/>
<stop offset="0.2601" stop-color="#00BEFF"/>
<stop offset="0.5122" stop-color="#00D2FF"/>
<stop offset="0.7604" stop-color="#00DFFF"/>
<stop offset="1" stop-color="#00E3FF"/>
</linearGradient>
<linearGradient id="paint1_linear_1965_42111" x1="24.2377" y1="14.7038" x2="9.79952" y2="14.7038" gradientUnits="userSpaceOnUse">
<stop stop-color="#FFE000"/>
<stop offset="0.4087" stop-color="#FFBD00"/>
<stop offset="0.7754" stop-color="#FFA500"/>
<stop offset="1" stop-color="#FF9C00"/>
</linearGradient>
<linearGradient id="paint2_linear_1965_42111" x1="18.8644" y1="16.0779" x2="5.23105" y2="29.6583" gradientUnits="userSpaceOnUse">
<stop stop-color="#FF3A44"/>
<stop offset="1" stop-color="#C31162"/>
</linearGradient>
<linearGradient id="paint3_linear_1965_42111" x1="8.4035" y1="2.82814" x2="14.4912" y2="8.89216" gradientUnits="userSpaceOnUse">
<stop stop-color="#32A071"/>
<stop offset="0.0685" stop-color="#2DA771"/>
<stop offset="0.4762" stop-color="#15CF74"/>
<stop offset="0.8009" stop-color="#06E775"/>
<stop offset="1" stop-color="#00F076"/>
</linearGradient>
</defs>
</svg>
