<svg width="31" height="31" viewBox="0 0 31 31" fill="none" xmlns="http://www.w3.org/2000/svg">
<rect width="31" height="31" rx="7" fill="#454652"/>
<path d="M6 21.4392C6 22.0164 6.43748 22.4688 7.00318 22.4688H7.88569C8.45139 22.4688 8.88887 22.0164 8.88887 21.4392V20.3082H20.9648V21.4392C20.9648 22.0164 21.3948 22.4688 21.9605 22.4688H22.8505C23.4162 22.4688 23.8462 22.0164 23.8462 21.4392V16.2289C23.8462 14.9185 23.6726 14.1307 22.8957 13.2493L22.1339 12.3991L21.3419 10.0514C20.912 8.77219 20.0748 8.234 19.0339 8.1092C18.5285 8.0468 16.8766 8 14.9231 8C12.977 8 11.3252 8.0468 10.8198 8.1092C9.77137 8.234 8.93412 8.77219 8.50419 10.0514L7.71221 12.3991L6.95793 13.2493C6.17348 14.1307 6 14.9185 6 16.2289V21.4392ZM9.78646 12.4381C9.41686 12.4381 9.29618 12.1651 9.40932 11.8219L9.87697 10.3634C10.0505 9.82517 10.3295 9.65358 10.7821 9.59117C11.3101 9.51318 12.7734 9.45858 14.9231 9.45858C17.0803 9.45858 18.5361 9.51318 19.0565 9.59117C19.5166 9.65358 19.7881 9.82517 19.9616 10.3634L20.4368 11.8219C20.55 12.1651 20.4217 12.4381 20.0597 12.4381H9.78646ZM8.73047 17.3131C8.26282 17.3131 7.9234 16.962 7.9234 16.4863V15.2695C7.9234 14.7937 8.26282 14.4505 8.73047 14.4505C9.19058 14.4505 9.53001 14.7859 9.53001 15.2695V16.4863C9.53001 16.9699 9.19058 17.3131 8.73047 17.3131ZM13.2108 16.9387C12.8413 16.9387 12.5924 16.6891 12.5924 16.2679V15.4801C12.5924 15.0745 12.8413 14.8249 13.2108 14.8249H16.6127C16.9898 14.8249 17.2387 15.0745 17.2387 15.4801V16.2679C17.2387 16.6891 16.9898 16.9387 16.6127 16.9387H13.2108ZM21.1911 17.3131C20.7385 17.3131 20.3916 16.962 20.3916 16.4863V15.2695C20.3916 14.7937 20.7385 14.4505 21.1911 14.4505C21.6587 14.4505 21.9982 14.7859 21.9982 15.2695V16.4863C21.9982 16.9699 21.6587 17.3131 21.1911 17.3131Z" fill="white"/>
</svg>
