<svg width="31" height="31" viewBox="0 0 31 31" fill="none" xmlns="http://www.w3.org/2000/svg">
<rect width="31" height="31" rx="7" fill="#454652"/>
<path d="M15.1989 23.8486C15.3218 23.9466 15.4743 24 15.6316 24C15.7888 24 15.9414 23.9466 16.0643 23.8486C16.3177 23.6457 22.2632 18.8219 22.2632 12.6263C22.2632 10.8689 21.5645 9.18346 20.3208 7.94079C19.0772 6.69812 17.3904 6 15.6316 6C13.8728 6 12.186 6.69812 10.9423 7.94079C9.69868 9.18346 9 10.8689 9 12.6263C9.00001 18.8219 14.9455 23.6457 15.1989 23.8486ZM13.2561 12.6263C13.2561 12.1568 13.3954 11.6979 13.6565 11.3076C13.9175 10.9173 14.2885 10.613 14.7226 10.4334C15.1567 10.2538 15.6343 10.2068 16.0951 10.2984C16.5559 10.39 16.9792 10.616 17.3114 10.948C17.6436 11.28 17.8698 11.7029 17.9615 12.1633C18.0531 12.6238 18.0061 13.101 17.8263 13.5348C17.6465 13.9685 17.342 14.3392 16.9514 14.6C16.5607 14.8608 16.1014 15 15.6316 15C15.0016 15 14.3973 14.7499 13.9518 14.3047C13.5063 13.8596 13.2561 13.2558 13.2561 12.6263Z" fill="white"/>
</svg>
