<svg width="31" height="31" viewBox="0 0 31 31" fill="none" xmlns="http://www.w3.org/2000/svg">
<rect width="31" height="31" rx="7" fill="#454652"/>
<rect x="6" y="6" width="18" height="18" rx="4" fill="white"/>
<path d="M15.4377 18.2368C15.5655 18.442 15.7062 18.6389 15.8589 18.8263C15.3746 19.0875 14.8247 19.2183 14.209 19.2188V20.5547C15.2168 20.5547 16.1173 20.2872 16.8809 19.7688C17.6444 20.2872 18.5449 20.5547 19.5527 20.5547V19.2188C18.9383 19.2188 18.3884 19.0878 17.9029 18.826C18.0556 18.6388 18.1962 18.442 18.324 18.2368C18.709 17.6109 18.9922 16.9277 19.1629 16.2129H19.8867V14.877H17.5488V13.875H16.2129V14.877H13.875V16.2129H14.5988C14.7695 16.9277 15.0527 17.6109 15.4377 18.2368ZM17.7797 16.2129C17.6415 16.6752 17.4436 17.1176 17.191 17.5288C17.0967 17.6804 16.9931 17.8261 16.8809 17.965C16.7768 17.8363 16.6802 17.7018 16.5915 17.5621C16.3287 17.1417 16.1237 16.6879 15.9819 16.2129H17.7797Z" fill="#454652"/>
<path d="M14.5304 16.125L14.0217 14.5246H11.4783L10.9696 16.125H9.375L11.8402 9.375H13.65L16.125 16.125H14.5304ZM13.1609 11.7662C13.1283 11.6595 13.0859 11.5246 13.0337 11.3614C12.9815 11.1982 12.9293 11.0319 12.8772 10.8624C12.825 10.693 12.7826 10.5455 12.75 10.42C12.7174 10.5455 12.6717 10.7024 12.613 10.8907C12.5609 11.0727 12.5087 11.2484 12.4565 11.4179C12.4109 11.5811 12.375 11.6972 12.3489 11.7662L11.85 13.329H13.6696L13.1609 11.7662Z" fill="#454652"/>
</svg>
