<svg width="30" height="30" viewBox="0 0 30 30" fill="none" xmlns="http://www.w3.org/2000/svg">
<rect width="29.3874" height="29.3874" rx="6" fill="white"/>
<path d="M19.0964 14.7179C19.1126 13.4524 19.7896 12.255 20.8636 11.5922C20.1861 10.6208 19.0513 10.0049 17.8706 9.96782C16.6114 9.83513 15.3906 10.7243 14.7489 10.7243C14.0948 10.7243 13.1068 9.981 12.0429 10.003C10.6562 10.048 9.36337 10.8395 8.6887 12.0566C7.2384 14.5773 8.32019 18.282 9.70945 20.3196C10.4045 21.3173 11.2169 22.4318 12.2798 22.3923C13.3199 22.349 13.7084 21.7265 14.964 21.7265C16.2079 21.7265 16.5723 22.3923 17.6568 22.3672C18.773 22.349 19.4762 21.365 20.1469 20.3578C20.6463 19.6469 21.0306 18.8611 21.2855 18.0297C19.9739 17.4728 19.0979 16.1476 19.0964 14.7179Z" fill="#0B0A0A"/>
<path d="M17.0479 8.62781C17.6565 7.8944 17.9563 6.95174 17.8837 6C16.954 6.09803 16.0951 6.54412 15.4784 7.24939C14.8752 7.93847 14.5614 8.86454 14.6207 9.77991C15.5508 9.78952 16.4651 9.35552 17.0479 8.62781Z" fill="#0B0A0A"/>
</svg>
