<svg width="14" height="10" viewBox="0 0 14 10" fill="none" xmlns="http://www.w3.org/2000/svg">
<path d="M13.9318 8.43758L10.5341 0.937578C10.4133 0.670859 10.1501 0.5 9.86039 0.5H7.48841L7.54796 1.04281C7.56011 1.15344 7.46994 1.25 7.35449 1.25H6.64574C6.53028 1.25 6.44011 1.15344 6.45226 1.04281L6.51181 0.5H4.13983C3.84987 0.5 3.58664 0.670859 3.46584 0.937578L0.0681663 8.43758C-0.15666 8.93422 0.20209 9.5 0.742402 9.5H5.52671L5.7773 7.21063C5.7982 7.01984 5.96494 6.875 6.164 6.875H7.83622C8.03528 6.875 8.20202 7.01984 8.22292 7.21063L8.47351 9.5H13.2578C13.7981 9.5 14.1569 8.93422 13.9318 8.43758ZM6.32928 2.16781C6.33432 2.12173 6.35688 2.07909 6.39261 2.0481C6.42834 2.01711 6.4747 1.99998 6.52275 2H7.47771C7.57712 2 7.66074 2.07242 7.67119 2.16781L7.78299 3.18922C7.80122 3.35539 7.66608 3.5 7.49303 3.5H6.50768C6.33438 3.5 6.19949 3.35539 6.21771 3.18922L6.32928 2.16781ZM7.67192 6.125H6.32806C6.09716 6.125 5.91706 5.93211 5.94136 5.71063L6.06459 4.58563C6.08549 4.39484 6.25223 4.25 6.45129 4.25H7.54869C7.74775 4.25 7.91449 4.39484 7.93539 4.58563L8.05862 5.71063C8.08292 5.93211 7.90282 6.125 7.67192 6.125Z" fill="#8A8A94"/>
</svg>
