<svg width="31" height="31" viewBox="0 0 31 31" fill="none" xmlns="http://www.w3.org/2000/svg">
<rect width="31" height="31" rx="7" fill="white"/>
<g clip-path="url(#clip0_1836_27771)">
<path d="M15.493 13.6256C17.3997 13.6256 18.9148 12.0192 18.9148 10.1277C18.9148 8.1844 17.3997 6.59088 15.493 6.59088C13.5864 6.59088 12.0965 8.1844 12.0965 10.1277C12.0965 12.058 13.5864 13.6256 15.493 13.6256ZM8.91461 26.7365L18.7128 15.5949C17.7532 15.2321 16.6925 15.0637 15.493 15.0637C11.0864 15.0637 8.47268 17.2531 8.47268 20.9065C8.47268 21.7746 8.52319 22.9535 8.64946 24.1713L8.91461 26.7365ZM22.0841 26.7495L22.3492 24.1713C22.4755 22.9535 22.526 21.7746 22.526 20.9065C22.526 19.1058 21.9074 17.6418 20.6952 16.6442L12.9425 25.5316C13.7885 25.3762 14.6471 25.3373 15.493 25.3373C17.6774 25.3373 19.8618 25.6223 22.0841 26.7495ZM11.7177 38.4092C12.6268 38.2797 13.2203 37.619 13.1066 36.4659L12.4879 30.6231H18.5108L17.8921 36.4659C17.7784 37.619 18.3719 38.2797 19.2683 38.4092C20.2027 38.5129 20.9224 37.9169 21.0361 36.7898L21.8189 29.0815C19.824 27.9024 17.6143 27.449 15.493 27.449C13.3844 27.449 11.1748 27.9024 9.17977 29.0815L9.96262 36.7898C10.0763 37.9169 10.796 38.5129 11.7177 38.4092ZM20.6952 16.6313L23.6245 13.3018C24.1296 12.7058 24.0917 12.071 23.5993 11.6435C23.1447 11.2289 22.5513 11.2289 22.0083 11.8378L18.7128 15.5949C19.4451 15.8669 20.1017 16.2426 20.6952 16.6313ZM5.2908 30.8952C5.74535 31.3745 6.36405 31.3615 6.89437 30.8044C7.60145 30.1178 8.30854 29.5348 9.17977 29.0815L8.91461 26.7365C7.61408 27.3584 6.47769 28.2523 5.40443 29.2886C4.89937 29.781 4.87412 30.4288 5.2908 30.8952ZM25.7079 30.8952C26.1246 30.4417 26.0993 29.794 25.6069 29.3017C24.521 28.2523 23.3847 27.3713 22.0841 26.7495L21.8189 29.0815C22.6901 29.5348 23.3973 30.1178 24.1043 30.8044C24.6346 31.3615 25.2533 31.3745 25.7079 30.8952Z" fill="#0B0A0A"/>
</g>
<defs>
<clipPath id="clip0_1836_27771">
<rect width="21" height="20" fill="white" transform="translate(5 5)"/>
</clipPath>
</defs>
</svg>
