<svg width="14" height="13" viewBox="0 0 14 13" fill="none" xmlns="http://www.w3.org/2000/svg">
<path d="M6.88338 0.296718C6.96053 0.164264 7.15188 0.164264 7.22903 0.296718L9.18502 3.65495C9.21328 3.70347 9.26064 3.73788 9.31552 3.74976L13.1138 4.57227C13.2636 4.60471 13.3228 4.78669 13.2206 4.901L10.6312 7.79901C10.5938 7.84088 10.5757 7.89655 10.5814 7.95241L10.9728 11.819C10.9883 11.9715 10.8335 12.084 10.6932 12.0221L7.13686 10.455C7.08547 10.4323 7.02694 10.4323 6.97556 10.455L3.41921 12.0221C3.27894 12.084 3.12413 11.9715 3.13957 11.819L3.53106 7.95241C3.53672 7.89655 3.51863 7.84088 3.48122 7.79901L0.891783 4.901C0.789652 4.78669 0.848783 4.60471 0.998594 4.57227L4.7969 3.74976C4.85178 3.73788 4.89913 3.70347 4.92739 3.65495L6.88338 0.296718Z" fill="white"/>
</svg>
