<svg width="13" height="13" viewBox="0 0 13 13" fill="none" xmlns="http://www.w3.org/2000/svg">
<path d="M6.57908 0.697662C5.32943 0.697662 4.10785 1.03385 3.0688 1.6637C2.02976 2.29355 1.21992 3.18879 0.7417 4.2362C0.26348 5.28361 0.138356 6.43615 0.38215 7.54807C0.625944 8.65999 1.22771 9.68136 2.11134 10.483C2.99498 11.2847 4.1208 11.8306 5.34643 12.0518C6.57207 12.2729 7.84248 12.1594 8.997 11.7256C10.1515 11.2917 11.1383 10.557 11.8326 9.61439C12.5269 8.67174 12.8974 7.5635 12.8974 6.42979C12.8974 5.67703 12.734 4.93165 12.4165 4.2362C12.0989 3.54075 11.6335 2.90884 11.0468 2.37656C10.4601 1.84429 9.76358 1.42206 8.997 1.13399C8.23043 0.845928 7.40882 0.697662 6.57908 0.697662ZM9.29596 5.05981L6.40849 8.49909C6.34963 8.56845 6.27403 8.62467 6.18751 8.66342C6.10099 8.70217 6.00583 8.72243 5.90934 8.72264C5.81337 8.72311 5.71854 8.70374 5.63205 8.666C5.54556 8.62825 5.46969 8.57313 5.41019 8.50482L3.86851 6.72213C3.76546 6.60203 3.71921 6.44971 3.73995 6.29867C3.76068 6.14763 3.8467 6.01026 3.97909 5.91676C4.11147 5.82327 4.27937 5.78131 4.44585 5.80012C4.61233 5.81894 4.76375 5.89698 4.86681 6.01708L5.8967 7.20936L8.28503 4.34329C8.33564 4.28307 8.39884 4.23249 8.471 4.19442C8.54316 4.15636 8.62288 4.13156 8.70561 4.12145C8.78834 4.11134 8.87245 4.1161 8.95314 4.13548C9.03384 4.15486 9.10954 4.18847 9.17592 4.23438C9.2423 4.2803 9.29805 4.33763 9.34001 4.4031C9.38197 4.46857 9.4093 4.54089 9.42045 4.61594C9.4316 4.69099 9.42634 4.7673 9.40498 4.84051C9.38362 4.91372 9.34658 4.98239 9.29596 5.04261V5.05981Z" fill="white"/>
</svg>
