<svg width="249" height="316" viewBox="0 0 249 316" fill="none" xmlns="http://www.w3.org/2000/svg">
<g clip-path="url(#clip0_2056_31872)">
<path d="M44.9352 334.216C44.9352 334.216 11.4489 258.256 35.1024 246.567C58.758 234.873 91.34 247.246 91.34 247.246C91.34 247.246 72.3067 262.447 111.638 337.568L44.9352 334.216Z" fill="white"/>
<mask id="mask0_2056_31872" style="mask-type:luminance" maskUnits="userSpaceOnUse" x="26" y="241" width="86" height="97">
<path d="M44.9352 334.216C44.9352 334.216 11.4489 258.256 35.1024 246.567C58.758 234.873 91.34 247.246 91.34 247.246C91.34 247.246 72.3067 262.447 111.638 337.568L44.9352 334.216Z" fill="white"/>
</mask>
<g mask="url(#mask0_2056_31872)">
<path d="M70.5517 288.526C70.5517 288.526 59.8997 265.274 63.2047 247.949C66.5054 230.621 72.471 227.198 72.471 227.198L91.1066 230.079L91.4997 286.68L70.5517 288.526Z" fill="#211F20"/>
<path d="M50.0399 290.27C50.0399 290.27 37.8939 255.225 52.7184 239.525L25.4842 248.137L27.1693 288.789L50.0399 290.27Z" fill="#3AB250"/>
<path d="M22.5272 284.668L99.2312 283.186L120.697 340.184L40.4354 336.055L22.5272 284.668Z" fill="#ED1C22"/>
</g>
<path d="M44.9352 334.216C44.9352 334.216 11.4489 258.256 35.1024 246.567C58.758 234.873 91.34 247.246 91.34 247.246C91.34 247.246 72.3067 262.447 111.638 337.568L44.9352 334.216Z" fill="url(#paint0_linear_2056_31872)"/>
<path d="M35.1019 246.567C35.1019 246.567 53.3021 245.696 63.8418 262.681C74.3795 279.672 109.041 275.331 119.871 269.076C130.702 262.821 133.758 254.03 133.758 254.03C133.758 254.03 114.767 252.004 109.6 239.579C104.438 227.156 84.2756 237.589 72.507 237.714C60.7384 237.838 52.2124 238.485 35.0977 246.566L35.1019 246.567Z" fill="white"/>
<mask id="mask1_2056_31872" style="mask-type:luminance" maskUnits="userSpaceOnUse" x="35" y="233" width="99" height="42">
<path d="M35.1019 246.567C35.1019 246.567 53.3021 245.696 63.8418 262.681C74.3795 279.672 109.041 275.331 119.871 269.076C130.702 262.821 133.758 254.03 133.758 254.03C133.758 254.03 114.767 252.004 109.6 239.579C104.438 227.156 84.2756 237.589 72.507 237.714C60.7384 237.838 52.2124 238.485 35.0977 246.566L35.1019 246.567Z" fill="white"/>
</mask>
<g mask="url(#mask1_2056_31872)">
<path d="M52.7181 239.525C52.7181 239.525 59.6388 238.003 70.103 249.012C80.5672 260.021 85.1825 263.725 94.1445 263.417C103.104 263.114 95.8858 280.715 95.8858 280.715C95.8858 280.715 67.4152 275.456 56.2131 267.905C45.013 260.348 30.9182 246.859 30.9182 246.859L52.7138 239.524L52.7181 239.525Z" fill="#3AB250"/>
<path d="M72.4942 234.036C72.4942 234.036 80.815 237.083 87.1381 244.176C93.4591 251.274 106.555 253.89 106.555 253.89L112.289 228.579L72.4962 234.03L72.4942 234.036Z" fill="#211F20"/>
</g>
<path d="M35.1019 246.567C35.1019 246.567 53.3021 245.696 63.8418 262.681C74.3795 279.672 109.041 275.331 119.871 269.076C130.702 262.821 133.758 254.03 133.758 254.03C133.758 254.03 114.767 252.004 109.6 239.579C104.438 227.156 84.2756 237.589 72.507 237.714C60.7384 237.838 52.2124 238.485 35.0977 246.566L35.1019 246.567Z" fill="url(#paint1_linear_2056_31872)"/>
<path d="M73.3328 270.787C73.3328 270.787 92.1266 281.994 95 238.482C97.8713 194.977 91.5229 175.691 129.428 117.127C167.333 58.5638 129.097 -11.9118 129.097 -11.9118L177.011 -9.50162C177.011 -9.50162 195.811 58.1149 178.099 112.775C160.387 167.435 150.122 155.918 141.859 197.095C133.594 238.278 139.011 234.077 133.764 254.026C128.516 273.981 122.329 276.196 107.304 275.399C92.281 274.597 81.9402 277.593 73.337 270.789L73.3328 270.787Z" fill="white"/>
<mask id="mask2_2056_31872" style="mask-type:luminance" maskUnits="userSpaceOnUse" x="73" y="-12" width="113" height="288">
<path d="M73.3328 270.787C73.3328 270.787 92.1266 281.994 95 238.482C97.8713 194.977 91.5229 175.691 129.428 117.127C167.333 58.5638 129.097 -11.9118 129.097 -11.9118L177.011 -9.50162C177.011 -9.50162 195.811 58.1149 178.099 112.775C160.387 167.435 150.122 155.918 141.859 197.095C133.594 238.278 139.011 234.077 133.764 254.026C128.516 273.981 122.329 276.196 107.304 275.399C92.281 274.597 81.9402 277.593 73.337 270.789L73.3328 270.787Z" fill="white"/>
</mask>
<g mask="url(#mask2_2056_31872)">
<path d="M107.37 280.538C107.37 280.538 118.071 271.069 122.465 245.633C126.863 220.199 124.614 192.546 132.194 173.692C142.615 147.765 165.807 127.193 172.779 83.6374C179.75 40.0822 162.091 -17.2788 162.091 -17.2788L181.706 -17.5273L190.579 79.0327L153.03 282.831L107.366 280.536L107.37 280.538Z" fill="#211F20"/>
<path d="M81.5655 281.092C81.5655 281.092 101.763 288.896 108.104 253.421C114.447 217.94 108.845 178.779 126.179 151.876C143.516 124.974 152.88 112.354 158.088 82.8979C163.294 53.4474 153.76 1.74351 145.836 -15.6275L123.908 -16.7322L67.1948 263.402L81.5697 281.094L81.5655 281.092Z" fill="#3AB250"/>
</g>
<path d="M73.3328 270.787C73.3328 270.787 92.1266 281.994 95 238.482C97.8713 194.977 91.5229 175.691 129.428 117.127C167.333 58.5638 129.097 -11.9118 129.097 -11.9118L177.011 -9.50162C177.011 -9.50162 195.811 58.1149 178.099 112.775C160.387 167.435 150.122 155.918 141.859 197.095C133.594 238.278 139.011 234.077 133.764 254.026C128.516 273.981 122.329 276.196 107.304 275.399C92.281 274.597 81.9402 277.593 73.337 270.789L73.3328 270.787Z" fill="url(#paint2_linear_2056_31872)"/>
</g>
<defs>
<linearGradient id="paint0_linear_2056_31872" x1="72.5464" y1="342.902" x2="40.5165" y2="258.48" gradientUnits="userSpaceOnUse">
<stop stop-opacity="0.3"/>
<stop offset="0.5" stop-color="#211F20" stop-opacity="0.1"/>
<stop offset="1" stop-opacity="0.3"/>
</linearGradient>
<linearGradient id="paint1_linear_2056_31872" x1="72.6606" y1="215.515" x2="101.638" y2="254.799" gradientUnits="userSpaceOnUse">
<stop stop-opacity="0.3"/>
<stop offset="0.5" stop-color="#211F20" stop-opacity="0.1"/>
<stop offset="1" stop-opacity="0.3"/>
</linearGradient>
<linearGradient id="paint2_linear_2056_31872" x1="80.6685" y1="274.44" x2="172.104" y2="-11.0673" gradientUnits="userSpaceOnUse">
<stop stop-opacity="0.3"/>
<stop offset="0.29" stop-color="#211F20" stop-opacity="0.1"/>
<stop offset="0.58" stop-opacity="0.3"/>
<stop offset="0.82" stop-opacity="0"/>
<stop offset="1" stop-opacity="0.3"/>
</linearGradient>
<clipPath id="clip0_2056_31872">
<rect width="380.313" height="131.892" fill="white" transform="translate(0 322.128) rotate(-70.9954)"/>
</clipPath>
</defs>
</svg>
