<svg width="24" height="20" viewBox="0 0 24 20" fill="none" xmlns="http://www.w3.org/2000/svg">
<path d="M11.6086 3.06462L11.9999 3.55628L12.3911 3.06462C13.4635 1.71703 15.1915 0.830566 17.1306 0.830566C20.4291 0.830566 23.0554 3.34911 23.0554 6.40365C23.0554 7.63853 22.8459 8.7787 22.4818 9.837L22.4806 9.84041C21.6073 12.4388 19.8164 14.5355 17.8809 16.0994C15.9442 17.6643 13.8957 18.6688 12.564 19.0948L12.564 19.0948L12.5589 19.0965C12.4293 19.1395 12.2265 19.1688 11.9999 19.1688C11.7733 19.1688 11.5705 19.1395 11.4409 19.0965L11.4409 19.0965L11.4358 19.0948C10.1041 18.6688 8.05558 17.6643 6.11891 16.0994C4.18337 14.5355 2.39253 12.4388 1.51917 9.84041L1.51918 9.8404L1.51801 9.83701C1.15383 8.7787 0.944336 7.63853 0.944336 6.40365C0.944336 3.34911 3.5707 0.830566 6.86922 0.830566C8.80827 0.830566 10.5363 1.71703 11.6086 3.06462Z" stroke="#DA2C2C"/>
</svg>
