<svg width="124" height="50" viewBox="0 0 124 50" fill="none" xmlns="http://www.w3.org/2000/svg">
<path fill-rule="evenodd" clip-rule="evenodd" d="M1.55586 28.2745C0.549923 26.5386 0.0974749 25.314 1.73081 24.0019C9.18262 17.9511 19.8845 11.9728 28.1236 11.8401C42.4134 11.6365 61.5022 17.3373 85.7066 6.47406C60.6847 15.5577 43.0694 9.60952 28.1236 10.1344C19.7397 10.4254 8.07413 16.5501 1.43974 22.9085C-0.00357157 24.308 -0.952204 25.7951 1.55586 28.2745Z" fill="url(#paint0_linear_2325_15205)"/>
<path fill-rule="evenodd" clip-rule="evenodd" d="M35.2402 10.2671C44.3103 3.88007 53.964 0.497272 65.1908 0.949719C81.2753 1.59069 96.5559 6.03825 113.034 7.51172C95.7687 6.4183 81.1576 3.19537 65.2933 2.64187C55.8447 2.30706 47.4458 4.56628 38.8281 10.5311C37.9971 10.8221 37.1797 11.1147 36.3487 11.4058C35.9838 11.0272 35.6052 10.6472 35.2402 10.2686V10.2671Z" fill="url(#paint1_linear_2325_15205)"/>
<path fill-rule="evenodd" clip-rule="evenodd" d="M40.5176 9.88705C43.1855 8.99723 45.9711 8.47239 48.8004 8.79363C48.3479 9.82974 47.6632 10.4556 47.152 10.8357C49.1352 10.2958 50.2874 9.17369 51.2934 7.72887C46.5547 7.17538 43.3167 8.3261 40.5176 9.88705Z" fill="url(#paint2_linear_2325_15205)"/>
<path fill-rule="evenodd" clip-rule="evenodd" d="M44.5273 19.001C52.2114 19.2197 62.5498 20.4443 71.3439 18.811C79.0717 17.3677 85.415 10.8359 93.2318 9.93097C100.625 9.09997 106.603 9.52226 114.506 9.52226C119.858 9.52226 123.386 15.0195 124 19.8758C123.49 12.5552 120.281 8.44393 114.667 8.21016C106.881 7.88892 101.222 7.91909 93.4218 8.29763C85.5779 8.69126 79.117 15.7781 71.4329 17.4552C62.6403 19.3796 52.8705 18.9136 44.5289 19.001H44.5273Z" fill="url(#paint3_linear_2325_15205)"/>
<path fill-rule="evenodd" clip-rule="evenodd" d="M113.527 7.58386C114.811 7.61252 116.079 7.67134 117.304 7.91867C117.45 7.48131 117.669 6.85392 117.8 6.28534C117.887 5.93545 117.697 5.84797 117.246 5.9641C115.949 6.32908 114.708 6.92631 113.527 7.58236V7.58386Z" fill="url(#paint4_linear_2325_15205)"/>
<path fill-rule="evenodd" clip-rule="evenodd" d="M5.76953 21.99C6.73174 21.8738 7.70902 21.7713 8.68631 21.6687C9.98333 21.5224 9.89585 21.6974 10.9033 20.8528C14.9135 17.4549 17.494 15.9965 21.0668 13.8535C15.3946 16.084 10.6409 18.8545 5.77104 21.99H5.76953Z" fill="url(#paint5_linear_2325_15205)"/>
<path fill-rule="evenodd" clip-rule="evenodd" d="M4.66113 22.9234C6.64436 22.851 8.64267 22.7198 10.6259 22.7198C11.8656 22.7047 11.8807 24.6744 11.9531 26.0001C11.5006 24.8192 11.3408 23.8705 10.2172 23.6956C8.54012 23.4483 6.29447 23.317 4.66113 22.9234Z" fill="url(#paint6_linear_2325_15205)"/>
<path fill-rule="evenodd" clip-rule="evenodd" d="M104.414 12.6728C109.372 12.6728 113.527 15.9982 114.812 20.5333C113.148 16.698 109.343 14.0301 104.911 14.0301C98.9322 14.0301 94.1061 18.8562 94.1061 24.8346C94.1061 25.8556 94.2373 26.8329 94.5148 27.78C93.9312 26.4528 93.625 25.0095 93.625 23.4787C93.625 17.5155 98.4511 12.6743 104.416 12.6743L104.414 12.6728Z" fill="url(#paint7_linear_2325_15205)"/>
<path fill-rule="evenodd" clip-rule="evenodd" d="M28.1245 14.0283C32.7621 14.0283 36.6848 17.1487 37.8793 21.4062C36.3199 17.8048 32.747 15.2967 28.577 15.2967C22.9923 15.2967 18.4437 19.8317 18.4437 25.4315C18.4437 26.3937 18.5749 27.3122 18.8222 28.202C18.2974 26.9623 17.9912 25.5914 17.9912 24.1631C17.9912 18.5634 22.5262 14.0283 28.1245 14.0283Z" fill="url(#paint8_linear_2325_15205)"/>
<path fill-rule="evenodd" clip-rule="evenodd" d="M72.8311 1.51826C73.6771 1.73694 77.6858 2.30552 78.4595 2.67049C78.6209 2.39299 78.8531 2.01445 79.0281 1.66455C79.1442 1.44587 79.0432 1.3584 78.7219 1.37348C77.8035 1.40213 75.1928 1.76711 72.8311 1.51977V1.51826Z" fill="url(#paint9_linear_2325_15205)"/>
<path fill-rule="evenodd" clip-rule="evenodd" d="M68.4121 10.7769L73.1507 5.27963L70.148 10.4571L69.4904 11.2007L68.4121 10.7769Z" fill="url(#paint10_linear_2325_15205)"/>
<path d="M13.9167 32.2517L8.55891 43.7063V49.8238H5.38054V43.7063L0 32.2517H3.58702L6.99243 40.2825L10.3751 32.2517H13.9167Z" fill="#DA2C2C"/>
<path d="M22.9511 50C21.4679 50 20.1057 49.614 18.8646 48.842C17.6235 48.0699 16.6398 47.0042 15.9133 45.6448C15.1868 44.2685 14.8235 42.7161 14.8235 40.9874C14.8235 39.2755 15.1868 37.7399 15.9133 36.3804C16.6398 35.0042 17.6235 33.9301 18.8646 33.158C20.1057 32.386 21.4679 32 22.9511 32C24.4495 32 25.8116 32.386 27.0376 33.158C28.2787 33.9301 29.2549 35.0042 29.9662 36.3804C30.6927 37.7399 31.056 39.2755 31.056 40.9874C31.056 42.7161 30.6927 44.2685 29.9662 45.6448C29.2549 47.0042 28.2787 48.0699 27.0376 48.842C25.7965 49.614 24.4343 50 22.9511 50ZM22.9511 46.8531C23.9046 46.8531 24.7446 46.6182 25.4711 46.1483C26.1976 45.6615 26.7652 44.9734 27.1738 44.0839C27.5825 43.1944 27.7868 42.1622 27.7868 40.9874C27.7868 39.8126 27.5825 38.7888 27.1738 37.9161C26.7652 37.0266 26.1976 36.3469 25.4711 35.8769C24.7446 35.407 23.9046 35.172 22.9511 35.172C21.9976 35.172 21.15 35.407 20.4084 35.8769C19.6819 36.3469 19.1143 37.0266 18.7057 37.9161C18.2971 38.7888 18.0927 39.8126 18.0927 40.9874C18.0927 42.1622 18.2971 43.1944 18.7057 44.0839C19.1143 44.9734 19.6819 45.6615 20.4084 46.1483C21.15 46.6182 21.9976 46.8531 22.9511 46.8531Z" fill="#DA2C2C"/>
<path d="M36.3992 32.2517V43.1273C36.3992 44.3189 36.6792 45.2336 37.2392 45.8713C37.7992 46.4923 38.5862 46.8028 39.6003 46.8028C40.6295 46.8028 41.424 46.4923 41.984 45.8713C42.544 45.2336 42.824 44.3189 42.824 43.1273V32.2517H46.0251V43.1021C46.0251 44.5958 45.73 45.8629 45.1397 46.9035C44.5646 47.9273 43.7851 48.6993 42.8013 49.2196C41.8327 49.7399 40.7505 50 39.5549 50C38.3743 50 37.2997 49.7399 36.3311 49.2196C35.3776 48.6993 34.6208 47.9273 34.0608 46.9035C33.5008 45.8629 33.2208 44.5958 33.2208 43.1021V32.2517H36.3992Z" fill="#DA2C2C"/>
<path d="M57.1146 49.8238L53.6184 42.9762H52.12V49.8238H48.9416V32.2517H54.8897C56.1157 32.2517 57.16 32.4951 58.0227 32.9818C58.8854 33.4517 59.5287 34.0979 59.9524 34.9203C60.3914 35.7259 60.6108 36.6322 60.6108 37.6392C60.6108 38.7972 60.3081 39.8462 59.7027 40.786C59.0973 41.7091 58.1968 42.3469 57.0011 42.6993L60.7924 49.8238H57.1146ZM52.12 40.3329H54.7762C55.6389 40.3329 56.2822 40.1063 56.706 39.6531C57.1297 39.1832 57.3416 38.5371 57.3416 37.7147C57.3416 36.9091 57.1297 36.2881 56.706 35.8517C56.2822 35.3986 55.6389 35.172 54.7762 35.172H52.12V40.3329Z" fill="#DA2C2C"/>
<path d="M66.5095 47.0294H71.7312V49.8238H63.3312V32.2517H66.5095V47.0294Z" fill="white"/>
<path d="M80.9526 50C79.4694 50 78.1072 49.614 76.8662 48.842C75.6251 48.0699 74.6413 47.0042 73.9148 45.6448C73.1883 44.2685 72.8251 42.7161 72.8251 40.9874C72.8251 39.2755 73.1883 37.7399 73.9148 36.3804C74.6413 35.0042 75.6251 33.9301 76.8662 33.158C78.1072 32.386 79.4694 32 80.9526 32C82.451 32 83.8132 32.386 85.0391 33.158C86.2802 33.9301 87.2564 35.0042 87.9678 36.3804C88.6943 37.7399 89.0575 39.2755 89.0575 40.9874C89.0575 42.7161 88.6943 44.2685 87.9678 45.6448C87.2564 47.0042 86.2802 48.0699 85.0391 48.842C83.798 49.614 82.4359 50 80.9526 50ZM80.9526 46.8531C81.9062 46.8531 82.7462 46.6182 83.4726 46.1483C84.1991 45.6615 84.7667 44.9734 85.1753 44.0839C85.584 43.1944 85.7883 42.1622 85.7883 40.9874C85.7883 39.8126 85.584 38.7888 85.1753 37.9161C84.7667 37.0266 84.1991 36.3469 83.4726 35.8769C82.7462 35.407 81.9062 35.172 80.9526 35.172C79.9991 35.172 79.1516 35.407 78.4099 35.8769C77.6835 36.3469 77.1159 37.0266 76.7072 37.9161C76.2986 38.7888 76.0943 39.8126 76.0943 40.9874C76.0943 42.1622 76.2986 43.1944 76.7072 44.0839C77.1159 44.9734 77.6835 45.6615 78.4099 46.1483C79.1516 46.6182 79.9991 46.8531 80.9526 46.8531Z" fill="white"/>
<path d="M102.301 37.5385C101.938 36.8 101.439 36.2378 100.803 35.8517C100.167 35.4657 99.4256 35.2727 98.578 35.2727C97.6396 35.2727 96.8072 35.5077 96.0807 35.9776C95.3542 36.4476 94.7867 37.1189 94.378 37.9916C93.9694 38.8643 93.765 39.8713 93.765 41.0126C93.765 42.1874 93.9694 43.2112 94.378 44.0839C94.8018 44.9566 95.3845 45.628 96.1261 46.0979C96.8677 46.5678 97.7304 46.8028 98.7142 46.8028C99.925 46.8028 100.916 46.4503 101.688 45.7455C102.46 45.0238 102.967 44.0252 103.209 42.7496H97.7607V40.0559H106.342V43.1273C106.13 44.3524 105.676 45.4853 104.98 46.5259C104.284 47.5664 103.383 48.4056 102.279 49.0434C101.189 49.6643 99.9629 49.9748 98.6007 49.9748C97.0721 49.9748 95.6872 49.5972 94.4461 48.842C93.2202 48.0699 92.2515 47.0042 91.5402 45.6448C90.844 44.2853 90.4959 42.7413 90.4959 41.0126C90.4959 39.2839 90.844 37.7399 91.5402 36.3804C92.2515 35.0042 93.2202 33.9385 94.4461 33.1832C95.6872 32.4112 97.0645 32.0252 98.578 32.0252C100.364 32.0252 101.915 32.5119 103.232 33.4853C104.549 34.442 105.457 35.793 105.956 37.5385H102.301Z" fill="white"/>
<path d="M115.895 50C114.412 50 113.05 49.614 111.809 48.842C110.568 48.0699 109.584 47.0042 108.857 45.6448C108.131 44.2685 107.768 42.7161 107.768 40.9874C107.768 39.2755 108.131 37.7399 108.857 36.3804C109.584 35.0042 110.568 33.9301 111.809 33.158C113.05 32.386 114.412 32 115.895 32C117.394 32 118.756 32.386 119.982 33.158C121.223 33.9301 122.199 35.0042 122.91 36.3804C123.637 37.7399 124 39.2755 124 40.9874C124 42.7161 123.637 44.2685 122.91 45.6448C122.199 47.0042 121.223 48.0699 119.982 48.842C118.741 49.614 117.378 50 115.895 50ZM115.895 46.8531C116.849 46.8531 117.689 46.6182 118.415 46.1483C119.142 45.6615 119.709 44.9734 120.118 44.0839C120.526 43.1944 120.731 42.1622 120.731 40.9874C120.731 39.8126 120.526 38.7888 120.118 37.9161C119.709 37.0266 119.142 36.3469 118.415 35.8769C117.689 35.407 116.849 35.172 115.895 35.172C114.942 35.172 114.094 35.407 113.352 35.8769C112.626 36.3469 112.058 37.0266 111.65 37.9161C111.241 38.7888 111.037 39.8126 111.037 40.9874C111.037 42.1622 111.241 43.1944 111.65 44.0839C112.058 44.9734 112.626 45.6615 113.352 46.1483C114.094 46.6182 114.942 46.8531 115.895 46.8531Z" fill="white"/>
<defs>
<linearGradient id="paint0_linear_2325_15205" x1="13.8236" y1="8.9354" x2="82.0388" y2="10.3602" gradientUnits="userSpaceOnUse">
<stop stop-color="#DD2323"/>
<stop offset="1" stop-color="#A20000"/>
</linearGradient>
<linearGradient id="paint1_linear_2325_15205" x1="47.7876" y1="2.09458" x2="109.636" y2="4.53" gradientUnits="userSpaceOnUse">
<stop stop-color="#DD2323"/>
<stop offset="1" stop-color="#A20000"/>
</linearGradient>
<linearGradient id="paint2_linear_2325_15205" x1="42.2556" y1="7.9546" x2="50.8333" y2="8.10581" gradientUnits="userSpaceOnUse">
<stop stop-color="#DD2323"/>
<stop offset="1" stop-color="#A20000"/>
</linearGradient>
<linearGradient id="paint3_linear_2325_15205" x1="57.3455" y1="9.33161" x2="120.547" y2="11.5767" gradientUnits="userSpaceOnUse">
<stop stop-color="#DD2323"/>
<stop offset="1" stop-color="#A20000"/>
</linearGradient>
<linearGradient id="paint4_linear_2325_15205" x1="114.22" y1="6.14185" x2="117.638" y2="6.18078" gradientUnits="userSpaceOnUse">
<stop stop-color="#DD2323"/>
<stop offset="1" stop-color="#A20000"/>
</linearGradient>
<linearGradient id="paint5_linear_2325_15205" x1="8.23683" y1="14.7721" x2="20.4162" y2="14.8938" gradientUnits="userSpaceOnUse">
<stop stop-color="#DD2323"/>
<stop offset="1" stop-color="#A20000"/>
</linearGradient>
<linearGradient id="paint6_linear_2325_15205" x1="5.83725" y1="23.0901" x2="11.6427" y2="23.1587" gradientUnits="userSpaceOnUse">
<stop stop-color="#DD2323"/>
<stop offset="1" stop-color="#A20000"/>
</linearGradient>
<linearGradient id="paint7_linear_2325_15205" x1="97.0422" y1="14.3784" x2="113.911" y2="14.5041" gradientUnits="userSpaceOnUse">
<stop stop-color="#DD2323"/>
<stop offset="1" stop-color="#A20000"/>
</linearGradient>
<linearGradient id="paint8_linear_2325_15205" x1="21.199" y1="15.6286" x2="37.0342" y2="15.7466" gradientUnits="userSpaceOnUse">
<stop stop-color="#DD2323"/>
<stop offset="1" stop-color="#A20000"/>
</linearGradient>
<linearGradient id="paint9_linear_2325_15205" x1="73.8381" y1="1.51845" x2="78.8063" y2="1.64535" gradientUnits="userSpaceOnUse">
<stop stop-color="#DD2323"/>
<stop offset="1" stop-color="#A20000"/>
</linearGradient>
<linearGradient id="paint10_linear_2325_15205" x1="69.1764" y1="5.94814" x2="72.9495" y2="5.96418" gradientUnits="userSpaceOnUse">
<stop stop-color="#DD2323"/>
<stop offset="1" stop-color="#A20000"/>
</linearGradient>
</defs>
</svg>
