<svg width="23" height="23" viewBox="0 0 23 23" fill="none" xmlns="http://www.w3.org/2000/svg">
<path d="M2.22168 9.88564C2.22168 5.84525 5.53613 2.56075 9.61336 2.56075C13.6906 2.56075 17.005 5.84525 17.005 9.88564C17.005 11.4604 16.4874 12.9182 15.6248 14.097L19.7747 18.2184C20.0198 18.4703 20.147 18.8033 20.147 19.1632C20.147 19.9101 19.593 20.486 18.8212 20.486C18.467 20.486 18.1129 20.3691 17.8586 20.1081L13.6815 15.9687C12.5192 16.7516 11.1298 17.2105 9.61336 17.2105C5.53613 17.2105 2.22168 13.926 2.22168 9.88564ZM4.14679 9.88564C4.14679 12.8732 6.58949 15.3028 9.61336 15.3028C12.6282 15.3028 15.0799 12.8732 15.0799 9.88564C15.0799 6.8981 12.6282 4.46846 9.61336 4.46846C6.58949 4.46846 4.14679 6.8981 4.14679 9.88564Z" fill="#454652" fill-opacity="0.6"/>
</svg>
